<?xml version="1.0" encoding="UTF-8" standalone="no" ?>
<!DOCTYPE svg PUBLIC "-//W3C//DTD SVG 1.1//EN" "http://www.w3.org/Graphics/SVG/1.1/DTD/svg11.dtd">
<svg xmlns="http://www.w3.org/2000/svg" xmlns:xlink="http://www.w3.org/1999/xlink" version="1.1" width="1080" height="1080" viewBox="0 0 1080 1080" xml:space="preserve">
<desc>Created with Fabric.js 5.2.4</desc>
<defs>
</defs>
<rect x="0" y="0" width="100%" height="100%" fill="transparent"></rect>
<g transform="matrix(1 0 0 1 540 540)" id="2dea6556-0ad7-4069-bf04-6aba4774160d"  >
<rect style="stroke: none; stroke-width: 1; stroke-dasharray: none; stroke-linecap: butt; stroke-dashoffset: 0; stroke-linejoin: miter; stroke-miterlimit: 4; fill: rgb(70,43,43); fill-rule: nonzero; opacity: 1; visibility: hidden;" vector-effect="non-scaling-stroke"  x="-540" y="-540" rx="0" ry="0" width="1080" height="1080" />
</g>
<g transform="matrix(1 0 0 1 540 540)" id="76fdcb82-3706-4c30-a1cd-47320e6cd74b"  >
</g>
<g transform="matrix(1.01 0 0 1.07 540 540)"  >
<g style="" vector-effect="non-scaling-stroke"   >
		<g transform="matrix(0.13 0 0 -0.13 98.75 -421.71)"  >
<path style="stroke: none; stroke-width: 1; stroke-dasharray: none; stroke-linecap: butt; stroke-dashoffset: 0; stroke-linejoin: miter; stroke-miterlimit: 4; fill: rgb(255,255,255); fill-rule: nonzero; opacity: 1;" vector-effect="non-scaling-stroke"  transform=" translate(-5366.68, -7786.61)" d="M 4310 8344 C 4106 8329 3866 8295 3703 8258 C 3617 8238 3610 8235 3600 8207 C 3595 8190 3590 8176 3590 8175 C 3590 8174 3659 8189 3743 8207 C 4015 8265 4190 8283 4495 8284 C 4789 8285 4870 8280 5060 8251 C 5415 8195 5747 8096 6040 7959 C 6097 7932 6150 7912 6157 7914 C 6164 7917 6170 7915 6170 7910 C 6170 7905 6200 7884 6238 7864 C 6537 7699 6799 7512 7014 7309 C 7108 7220 7111 7218 7130 7235 C 7141 7245 7146 7258 7142 7264 C 7129 7286 6949 7449 6857 7523 C 6634 7701 6412 7842 6155 7966 C 5740 8167 5384 8272 4935 8325 C 4808 8340 4419 8352 4310 8344 z" stroke-linecap="round" />
</g>
		<g transform="matrix(0.13 0 0 -0.13 -299.42 -369.05)"  >
<path style="stroke: none; stroke-width: 1; stroke-dasharray: none; stroke-linecap: butt; stroke-dashoffset: 0; stroke-linejoin: miter; stroke-miterlimit: 4; fill: rgb(255,255,255); fill-rule: nonzero; opacity: 1;" vector-effect="non-scaling-stroke"  transform=" translate(-2380.45, -7391.62)" d="M 2337 7559 C 2299 7550 2238 7521 2209 7498 C 2181 7475 2169 7442 2163 7362 C 2156 7261 2173 7220 2224 7220 C 2278 7220 2296 7249 2292 7331 C 2290 7392 2292 7400 2311 7410 C 2338 7425 2386 7416 2458 7384 C 2521 7356 2561 7359 2585 7393 C 2609 7427 2603 7460 2567 7494 C 2513 7544 2404 7575 2337 7559 z" stroke-linecap="round" />
</g>
		<g transform="matrix(0.13 0 0 -0.13 400.06 -234.2)"  >
<path style="stroke: none; stroke-width: 1; stroke-dasharray: none; stroke-linecap: butt; stroke-dashoffset: 0; stroke-linejoin: miter; stroke-miterlimit: 4; fill: rgb(255,255,255); fill-rule: nonzero; opacity: 1;" vector-effect="non-scaling-stroke"  transform=" translate(-7626.57, -6380.31)" d="M 7135 7230 C 7118 7211 7119 7209 7203 7120 C 7403 6910 7623 6603 7759 6344 C 7776 6312 7794 6278 7799 6270 C 7846 6194 8000 5791 8045 5625 C 8061 5570 8076 5521 8081 5517 C 8085 5512 8098 5511 8110 5515 C 8137 5524 8135 5542 8078 5718 C 7901 6275 7634 6740 7255 7150 C 7207 7202 7164 7246 7160 7248 C 7157 7249 7145 7241 7135 7230 z" stroke-linecap="round" />
</g>
		<g transform="matrix(0.13 0 0 -0.13 -360.92 -313.61)"  >
<path style="stroke: none; stroke-width: 1; stroke-dasharray: none; stroke-linecap: butt; stroke-dashoffset: 0; stroke-linejoin: miter; stroke-miterlimit: 4; fill: rgb(255,255,255); fill-rule: nonzero; opacity: 1;" vector-effect="non-scaling-stroke"  transform=" translate(-1919.19, -6975.84)" d="M 1885 7208 C 1856 7191 1835 7163 1796 7090 C 1741 6986 1737 6958 1761 6860 C 1773 6810 1789 6766 1802 6753 C 1828 6725 1871 6723 1895 6749 C 1913 6769 1913 6771 1895 6906 C 1889 6951 1891 6962 1916 6999 C 1938 7033 1948 7040 1964 7035 C 2021 7017 2041 7018 2066 7041 C 2105 7078 2099 7121 2048 7163 C 1975 7222 1930 7234 1885 7208 z" stroke-linecap="round" />
</g>
		<g transform="matrix(0.13 0 0 -0.13 -301.52 -288.79)"  >
<path style="stroke: none; stroke-width: 1; stroke-dasharray: none; stroke-linecap: butt; stroke-dashoffset: 0; stroke-linejoin: miter; stroke-miterlimit: 4; fill: rgb(255,255,255); fill-rule: nonzero; opacity: 1;" vector-effect="non-scaling-stroke"  transform=" translate(-2364.66, -6789.68)" d="M 2488 7020 C 2453 6993 2421 6914 2416 6843 C 2414 6810 2407 6773 2400 6761 C 2381 6724 2326 6707 2249 6715 C 2166 6723 2145 6717 2130 6681 C 2109 6629 2139 6600 2258 6559 C 2340 6531 2392 6534 2432 6569 C 2479 6610 2525 6692 2564 6801 C 2620 6956 2619 6998 2563 7028 C 2533 7045 2516 7043 2488 7020 z" stroke-linecap="round" />
</g>
		<g transform="matrix(0.13 0 0 -0.13 -430.14 -209.59)"  >
<path style="stroke: none; stroke-width: 1; stroke-dasharray: none; stroke-linecap: butt; stroke-dashoffset: 0; stroke-linejoin: miter; stroke-miterlimit: 4; fill: rgb(255,255,255); fill-rule: nonzero; opacity: 1;" vector-effect="non-scaling-stroke"  transform=" translate(-1400, -6195.7)" d="M 1368 6313 C 1360 6303 1350 6287 1347 6278 C 1342 6263 1336 6262 1315 6270 C 1270 6287 1230 6252 1230 6196 C 1230 6166 1267 6140 1379 6090 C 1439 6064 1462 6059 1499 6063 C 1552 6069 1570 6089 1570 6140 C 1570 6171 1563 6182 1530 6209 C 1504 6229 1490 6249 1490 6264 C 1490 6317 1402 6352 1368 6313 z" stroke-linecap="round" />
</g>
		<g transform="matrix(0.13 0 0 -0.13 -387.5 -167.86)"  >
<path style="stroke: none; stroke-width: 1; stroke-dasharray: none; stroke-linecap: butt; stroke-dashoffset: 0; stroke-linejoin: miter; stroke-miterlimit: 4; fill: rgb(255,255,255); fill-rule: nonzero; opacity: 1;" vector-effect="non-scaling-stroke"  transform=" translate(-1719.87, -5882.73)" d="M 1590 6055 C 1569 6033 1568 6024 1573 5967 C 1580 5891 1610 5807 1650 5752 C 1681 5709 1726 5688 1791 5686 C 1863 5684 1893 5748 1848 5805 C 1830 5829 1822 5831 1789 5826 C 1754 5820 1751 5822 1741 5853 C 1735 5870 1724 5921 1715 5964 C 1707 6007 1693 6051 1684 6061 C 1660 6088 1618 6085 1590 6055 z" stroke-linecap="round" />
</g>
		<g transform="matrix(0.13 0 0 -0.13 -465.01 -90.18)"  >
<path style="stroke: none; stroke-width: 1; stroke-dasharray: none; stroke-linecap: butt; stroke-dashoffset: 0; stroke-linejoin: miter; stroke-miterlimit: 4; fill: rgb(255,255,255); fill-rule: nonzero; opacity: 1;" vector-effect="non-scaling-stroke"  transform=" translate(-1138.53, -5300.15)" d="M 1152 5817 C 1139 5804 1130 5781 1130 5763 C 1130 5732 1172 5584 1205 5499 L 1223 5454 L 1119 5323 L 1015 5192 L 904 5301 C 813 5391 788 5410 763 5410 C 713 5410 681 5357 704 5312 C 722 5279 794 5209 878 5145 C 923 5110 960 5068 1011 4992 C 1100 4862 1133 4824 1189 4788 C 1269 4738 1340 4760 1340 4835 C 1340 4864 1334 4874 1308 4890 C 1290 4901 1269 4908 1263 4905 C 1256 4903 1215 4944 1172 4998 L 1093 5096 L 1137 5134 C 1162 5156 1207 5206 1237 5246 C 1268 5287 1295 5320 1299 5320 C 1302 5320 1322 5309 1343 5295 C 1438 5230 1536 5211 1564 5252 C 1602 5305 1573 5359 1497 5379 C 1399 5404 1372 5442 1306 5650 C 1255 5808 1252 5816 1224 5829 C 1188 5845 1176 5843 1152 5817 z" stroke-linecap="round" />
</g>
		<g transform="matrix(0.13 0 0 -0.13 475.97 -24.97)"  >
<path style="stroke: none; stroke-width: 1; stroke-dasharray: none; stroke-linecap: butt; stroke-dashoffset: 0; stroke-linejoin: miter; stroke-miterlimit: 4; fill: rgb(255,255,255); fill-rule: nonzero; opacity: 1;" vector-effect="non-scaling-stroke"  transform=" translate(-8195.88, -4811.04)" d="M 7859 5162 C 7828 5136 7828 5084 7861 5059 C 7900 5028 7986 4981 8017 4974 C 8038 4969 8133 4913 8169 4884 C 8170 4883 8165 4871 8156 4858 C 8147 4846 8140 4818 8140 4797 C 8140 4748 8122 4715 8066 4662 C 7965 4568 7933 4490 7982 4456 C 8031 4421 8105 4455 8134 4524 C 8141 4542 8166 4571 8189 4589 C 8242 4631 8249 4646 8263 4736 L 8275 4811 L 8355 4754 C 8489 4660 8523 4654 8550 4719 C 8571 4770 8546 4792 8280 4969 C 8102 5087 7934 5180 7901 5180 C 7891 5180 7872 5172 7859 5162 z" stroke-linecap="round" />
</g>
		<g transform="matrix(0.13 0 0 -0.13 439.82 31.22)"  >
<path style="stroke: none; stroke-width: 1; stroke-dasharray: none; stroke-linecap: butt; stroke-dashoffset: 0; stroke-linejoin: miter; stroke-miterlimit: 4; fill: rgb(255,255,255); fill-rule: nonzero; opacity: 1;" vector-effect="non-scaling-stroke"  transform=" translate(-7924.71, -4389.63)" d="M 7586 4598 C 7564 4567 7566 4534 7593 4509 C 7630 4473 7845 4335 7922 4297 C 7962 4278 8019 4257 8048 4250 C 8084 4242 8116 4225 8146 4199 C 8171 4177 8193 4160 8194 4160 C 8217 4160 8260 4187 8269 4206 C 8297 4268 8271 4294 8077 4389 C 7988 4433 7858 4502 7788 4544 C 7650 4626 7613 4636 7586 4598 z" stroke-linecap="round" />
</g>
		<g transform="matrix(0.13 0 0 -0.13 367.8 120.64)"  >
<path style="stroke: none; stroke-width: 1; stroke-dasharray: none; stroke-linecap: butt; stroke-dashoffset: 0; stroke-linejoin: miter; stroke-miterlimit: 4; fill: rgb(255,255,255); fill-rule: nonzero; opacity: 1;" vector-effect="non-scaling-stroke"  transform=" translate(-7384.59, -3718.98)" d="M 7127 3920 C 7085 3887 7091 3851 7148 3798 C 7200 3749 7370 3635 7458 3589 C 7489 3572 7528 3546 7543 3529 C 7576 3495 7607 3492 7644 3521 C 7678 3548 7678 3589 7644 3629 C 7630 3646 7571 3689 7512 3724 C 7453 3760 7358 3821 7301 3860 C 7244 3899 7187 3933 7176 3936 C 7162 3939 7144 3933 7127 3920 z" stroke-linecap="round" />
</g>
		<g transform="matrix(0.13 0 0 -0.13 -192.12 308.21)"  >
<path style="stroke: none; stroke-width: 1; stroke-dasharray: none; stroke-linecap: butt; stroke-dashoffset: 0; stroke-linejoin: miter; stroke-miterlimit: 4; fill: rgb(255,255,255); fill-rule: nonzero; opacity: 1;" vector-effect="non-scaling-stroke"  transform=" translate(-3185.16, -2312.23)" d="M 932 3719 C 916 3713 910 3704 914 3693 C 917 3683 924 3655 930 3630 C 966 3490 1073 3193 1124 3090 C 1137 3065 1164 3009 1185 2965 C 1448 2415 1915 1885 2455 1525 C 3067 1117 3781 901 4520 901 C 4677 901 4748 905 4955 926 C 5034 934 5210 964 5337 991 C 5434 1011 5439 1014 5450 1043 C 5455 1060 5459 1075 5457 1076 C 5455 1078 5438 1075 5419 1070 C 5346 1049 5148 1010 5000 988 C 4864 968 4806 965 4520 965 C 4181 965 4106 971 3839 1021 C 3574 1070 3266 1166 3025 1276 C 2948 1311 2884 1336 2882 1330 C 2880 1325 2874 1320 2869 1320 C 2865 1320 2863 1326 2865 1333 C 2868 1339 2861 1350 2851 1355 C 2697 1433 2433 1602 2275 1724 C 1902 2012 1567 2396 1344 2790 C 1272 2919 1239 2970 1228 2970 C 1223 2970 1222 2975 1225 2981 C 1229 2986 1207 3046 1177 3113 C 1110 3262 1043 3447 999 3600 C 981 3663 964 3718 961 3721 C 958 3725 945 3724 932 3719 z" stroke-linecap="round" />
</g>
		<g transform="matrix(0.13 0 0 -0.13 427.45 167.2)"  >
<path style="stroke: none; stroke-width: 1; stroke-dasharray: none; stroke-linecap: butt; stroke-dashoffset: 0; stroke-linejoin: miter; stroke-miterlimit: 4; fill: rgb(255,255,255); fill-rule: nonzero; opacity: 1;" vector-effect="non-scaling-stroke"  transform=" translate(-7832, -3369.75)" d="M 7743 3458 C 7707 3441 7711 3380 7751 3335 C 7791 3290 7829 3270 7874 3270 C 7941 3270 7971 3348 7920 3392 C 7909 3401 7900 3415 7900 3423 C 7900 3430 7892 3444 7882 3453 C 7861 3473 7778 3475 7743 3458 z" stroke-linecap="round" />
</g>
		<g transform="matrix(0.13 0 0 -0.13 355.73 272.44)"  >
<path style="stroke: none; stroke-width: 1; stroke-dasharray: none; stroke-linecap: butt; stroke-dashoffset: 0; stroke-linejoin: miter; stroke-miterlimit: 4; fill: rgb(255,255,255); fill-rule: nonzero; opacity: 1;" vector-effect="non-scaling-stroke"  transform=" translate(-7294.03, -2580.48)" d="M 7185 2805 C 7171 2792 7160 2772 7160 2760 C 7160 2749 7187 2711 7219 2676 C 7312 2576 7313 2511 7223 2468 C 7180 2447 7175 2441 7172 2408 C 7166 2339 7226 2311 7307 2345 C 7378 2375 7418 2435 7427 2526 C 7434 2593 7407 2652 7319 2758 C 7252 2839 7227 2848 7185 2805 z" stroke-linecap="round" />
</g>
		<g transform="matrix(0.13 0 0 -0.13 277.39 315.21)"  >
<path style="stroke: none; stroke-width: 1; stroke-dasharray: none; stroke-linecap: butt; stroke-dashoffset: 0; stroke-linejoin: miter; stroke-miterlimit: 4; fill: rgb(255,255,255); fill-rule: nonzero; opacity: 1;" vector-effect="non-scaling-stroke"  transform=" translate(-6706.55, -2259.73)" d="M 6669 2481 C 6620 2450 6559 2367 6534 2298 C 6526 2274 6516 2226 6513 2190 C 6509 2133 6511 2121 6531 2091 C 6581 2019 6710 1983 6744 2032 C 6781 2084 6753 2149 6694 2153 C 6659 2155 6650 2166 6650 2206 C 6650 2234 6675 2277 6724 2332 C 6732 2341 6769 2358 6807 2369 C 6898 2396 6926 2444 6880 2490 C 6864 2506 6847 2510 6787 2510 C 6724 2510 6708 2506 6669 2481 z" stroke-linecap="round" />
</g>
		<g transform="matrix(0.13 0 0 -0.13 307.81 362.84)"  >
<path style="stroke: none; stroke-width: 1; stroke-dasharray: none; stroke-linecap: butt; stroke-dashoffset: 0; stroke-linejoin: miter; stroke-miterlimit: 4; fill: rgb(255,255,255); fill-rule: nonzero; opacity: 1;" vector-effect="non-scaling-stroke"  transform=" translate(-6934.7, -1902.49)" d="M 6939 2129 C 6908 2098 6922 2064 6992 1998 C 7050 1943 7052 1938 7047 1902 C 7040 1849 7012 1792 6990 1785 C 6979 1782 6938 1791 6898 1805 C 6767 1853 6743 1856 6712 1833 C 6677 1807 6671 1754 6698 1719 C 6714 1700 6731 1694 6786 1689 C 6824 1685 6881 1674 6913 1665 C 6961 1652 6980 1651 7023 1660 C 7135 1684 7178 1739 7187 1870 C 7194 1971 7173 2018 7086 2095 C 7015 2157 6976 2166 6939 2129 z" stroke-linecap="round" />
</g>
</g>
</g>
</svg>